M48
;DRILL file {KiCad 4.0.5} date 10/20/18 10:38:29
;FORMAT={-:-/ absolute / inch / decimal}
FMAT,2
INCH,TZ
T1C0.016
T2C0.031
T3C0.040
T4C0.043
T5C0.047
T6C0.071
T7C0.120
T8C0.126
T9C0.157
T10C0.165
%
G90
G05
M72
T1
X0.745Y-2.235
X0.82Y-2.21
X2.705Y-1.92
X2.705Y-2.115
X2.9Y-5.275
X3.455Y-2.125
X4.195Y-2.145
X4.37Y-6.025
X4.685Y-1.8225
X4.745Y-1.7525
X4.83Y-1.7525
X4.855Y-1.58
X4.925Y-1.87
X4.93Y-1.53
X4.93Y-2.17
X4.96Y-1.915
X4.99Y-1.955
X5.02Y-1.925
X5.055Y-1.95
X5.09Y-1.92
X5.185Y-1.525
X5.625Y-2.195
X6.08Y-1.435
X6.45Y-2.265
X7.145Y-2.385
X7.145Y-3.625
X7.17Y-4.37
X7.175Y-2.36
X7.205Y-2.34
X7.205Y-5.125
X7.23Y-5.87
X7.235Y-2.31
X7.27Y-2.27
X7.475Y-2.275
X7.515Y-1.49
X8.205Y-4.525
X8.35Y-1.815
X8.83Y-1.4
X8.975Y-2.295
X9.6Y-2.8
X9.618Y-5.948
X9.62Y-1.44
X9.62Y-2.265
X9.8475Y-1.84
X9.905Y-1.78
X9.9925Y-1.7775
X10.Y-2.245
X10.015Y-2.28
X10.02Y-1.56
X10.11Y-1.39
X10.12Y-2.125
X10.135Y-1.355
X10.155Y-2.02
X10.175Y-3.67
X10.3Y-4.45
X10.89Y-4.61
X11.055Y-4.45
X11.3Y-2.89
X11.465Y-2.7
X11.68Y-5.28
X11.96Y-1.375
X12.195Y-2.7
X12.23Y-5.275
X12.5Y-4.455
X12.81Y-1.415
X12.935Y-2.7
X13.025Y-1.495
X13.235Y-2.155
X13.335Y-4.45
X13.435Y-2.845
X13.4675Y-1.805
X13.61Y-1.735
X13.69Y-0.98
X13.69Y-1.335
X13.695Y-1.855
X13.7Y-2.7
X13.715Y-1.415
X13.715Y-2.035
X13.74Y-1.375
X13.78Y-1.465
X13.81Y-1.435
X13.81Y-2.005
X13.855Y-2.005
X13.885Y-1.98
X14.63Y-2.06
X15.31Y-2.02
X16.25Y-1.835
X16.25Y-3.775
X16.47Y-2.055
T2
X0.85Y-2.325
X0.85Y-2.625
X0.85Y-3.325
X0.85Y-3.625
X0.85Y-4.075
X0.85Y-4.375
X0.85Y-4.825
X0.85Y-5.125
X0.85Y-5.95
X0.85Y-6.25
X1.2Y-2.7
X1.2Y-3.7
X1.2Y-4.45
X1.2Y-5.2
X1.2Y-6.325
X1.3Y-2.7
X1.3Y-3.7
X1.3Y-4.45
X1.3Y-5.2
X1.3Y-6.325
X1.85Y-2.325
X1.85Y-2.625
X1.85Y-3.325
X1.85Y-3.625
X1.95Y-6.325
X1.95Y-6.625
X2.025Y-4.075
X2.025Y-4.375
X2.125Y-4.825
X2.125Y-5.125
X2.2Y-2.7
X2.2Y-3.7
X2.2937Y-6.7
X2.3Y-2.7
X2.3Y-3.7
X2.325Y-5.575
X2.325Y-5.875
X2.3875Y-4.45
X2.3937Y-6.7
X2.4812Y-5.2
X2.4875Y-4.45
X2.5812Y-5.2
X2.6Y-2.325
X2.6Y-2.625
X2.6Y-3.325
X2.6Y-3.625
X2.6687Y-5.95
X2.7687Y-5.95
X2.875Y-6.325
X2.875Y-6.625
X2.95Y-2.7
X2.95Y-3.7
X2.975Y-4.075
X2.975Y-4.375
X3.05Y-2.7
X3.05Y-3.7
X3.15Y-4.825
X3.15Y-5.125
X3.2312Y-6.7
X3.325Y-4.45
X3.3312Y-6.7
X3.35Y-2.325
X3.35Y-2.625
X3.35Y-3.325
X3.35Y-3.625
X3.425Y-4.45
X3.5125Y-5.2
X3.525Y-5.575
X3.525Y-5.875
X3.6125Y-5.2
X3.7Y-2.7
X3.7Y-3.7
X3.725Y-4.075
X3.725Y-4.375
X3.8Y-2.7
X3.8Y-3.7
X3.825Y-6.325
X3.825Y-6.625
X3.8875Y-5.95
X3.925Y-4.825
X3.925Y-5.125
X3.9875Y-5.95
X4.075Y-4.45
X4.1Y-2.325
X4.1Y-2.625
X4.1Y-3.325
X4.1Y-3.625
X4.17Y-6.705
X4.175Y-4.45
X4.2625Y-5.2
X4.27Y-6.705
X4.3Y-5.575
X4.3Y-5.875
X4.3625Y-5.2
X4.45Y-2.7
X4.45Y-3.7
X4.475Y-4.075
X4.475Y-4.375
X4.55Y-2.7
X4.55Y-3.7
X4.6375Y-5.95
X4.675Y-4.825
X4.675Y-5.125
X4.7375Y-5.95
X4.825Y-4.45
X4.85Y-2.325
X4.85Y-2.625
X4.85Y-3.325
X4.85Y-3.625
X4.85Y-6.325
X4.85Y-6.625
X4.925Y-4.45
X5.0125Y-5.2
X5.05Y-5.575
X5.05Y-5.875
X5.1125Y-5.2
X5.2Y-2.7
X5.2Y-3.7
X5.2Y-6.7
X5.225Y-4.075
X5.225Y-4.375
X5.3Y-2.7
X5.3Y-3.7
X5.3Y-6.7
X5.3875Y-5.95
X5.425Y-4.825
X5.425Y-5.125
X5.4875Y-5.95
X5.575Y-4.45
X5.6Y-2.325
X5.6Y-2.625
X5.6Y-3.325
X5.6Y-3.625
X5.675Y-4.45
X5.7625Y-5.2
X5.8Y-5.575
X5.8Y-5.875
X5.8625Y-5.2
X5.95Y-2.7
X5.95Y-3.7
X5.975Y-4.075
X5.975Y-4.375
X6.05Y-2.7
X6.05Y-3.7
X6.1375Y-5.95
X6.15Y-6.325
X6.15Y-6.625
X6.175Y-4.825
X6.175Y-5.125
X6.2375Y-5.95
X6.325Y-4.45
X6.35Y-2.325
X6.35Y-2.625
X6.35Y-3.325
X6.35Y-3.625
X6.425Y-4.45
X6.5125Y-5.2
X6.5125Y-6.7
X6.55Y-5.575
X6.55Y-5.875
X6.6125Y-5.2
X6.6125Y-6.7
X6.7Y-2.7
X6.7Y-3.7
X6.8Y-2.7
X6.8Y-3.7
X6.8875Y-5.95
X6.9875Y-5.95
X7.35Y-2.325
X7.35Y-2.625
X7.354Y-3.323
X7.354Y-3.623
X7.354Y-4.073
X7.354Y-4.373
X7.354Y-6.323
X7.354Y-6.623
X7.704Y-2.698
X7.704Y-3.698
X7.704Y-4.448
X7.704Y-6.698
X7.804Y-2.698
X7.804Y-3.698
X7.804Y-4.448
X7.804Y-6.698
X8.1Y-2.325
X8.1Y-2.625
X8.104Y-3.323
X8.104Y-3.623
X8.104Y-4.073
X8.104Y-4.373
X8.104Y-5.573
X8.104Y-5.873
X8.104Y-6.323
X8.104Y-6.623
X8.454Y-2.698
X8.454Y-3.698
X8.454Y-4.448
X8.454Y-5.948
X8.454Y-6.698
X8.554Y-2.698
X8.554Y-3.698
X8.554Y-4.448
X8.554Y-5.948
X8.554Y-6.698
X8.85Y-2.325
X8.85Y-2.625
X8.854Y-3.323
X8.854Y-3.623
X8.854Y-4.073
X8.854Y-4.373
X8.854Y-6.323
X8.854Y-6.623
X9.204Y-2.698
X9.204Y-3.698
X9.204Y-4.448
X9.204Y-6.698
X9.304Y-2.698
X9.304Y-3.698
X9.304Y-4.448
X9.304Y-6.698
X9.725Y-4.075
X9.725Y-4.375
X9.9Y-4.82
X9.9Y-5.12
X10.Y-6.32
X10.Y-6.62
X10.075Y-4.45
X10.1Y-2.325
X10.1Y-2.625
X10.1Y-3.325
X10.1Y-3.625
X10.175Y-4.45
X10.2625Y-5.2
X10.28Y-5.56
X10.28Y-5.86
X10.3562Y-6.7
X10.3625Y-5.2
X10.45Y-2.7
X10.45Y-3.7
X10.4562Y-6.7
X10.475Y-4.075
X10.475Y-4.375
X10.55Y-2.7
X10.55Y-3.7
X10.6375Y-5.95
X10.66Y-4.82
X10.66Y-5.12
X10.7375Y-5.95
X10.825Y-4.45
X10.85Y-2.325
X10.85Y-2.625
X10.85Y-3.325
X10.85Y-3.625
X10.925Y-4.45
X11.0125Y-5.2
X11.04Y-5.58
X11.04Y-5.88
X11.1125Y-5.2
X11.2Y-2.7
X11.2Y-3.7
X11.22Y-6.32
X11.22Y-6.62
X11.225Y-4.075
X11.225Y-4.375
X11.3Y-2.7
X11.3Y-3.7
X11.3875Y-5.95
X11.42Y-4.82
X11.42Y-5.12
X11.4875Y-5.95
X11.575Y-4.45
X11.575Y-6.7
X11.6Y-2.325
X11.6Y-2.625
X11.6Y-3.325
X11.6Y-3.625
X11.675Y-4.45
X11.675Y-6.7
X11.7625Y-5.2
X11.78Y-5.58
X11.78Y-5.88
X11.8625Y-5.2
X11.95Y-2.7
X11.95Y-3.7
X11.975Y-4.075
X11.975Y-4.375
X12.05Y-2.7
X12.05Y-3.7
X12.1375Y-5.95
X12.16Y-4.82
X12.16Y-5.12
X12.2375Y-5.95
X12.325Y-4.45
X12.34Y-6.32
X12.34Y-6.62
X12.35Y-2.325
X12.35Y-2.625
X12.35Y-3.325
X12.35Y-3.625
X12.425Y-4.45
X12.5125Y-5.2
X12.54Y-5.58
X12.54Y-5.88
X12.6125Y-5.2
X12.7Y-2.7
X12.7Y-3.7
X12.7Y-6.7
X12.725Y-4.075
X12.725Y-4.375
X12.8Y-2.7
X12.8Y-3.7
X12.8Y-6.7
X12.8875Y-5.95
X12.92Y-4.83
X12.92Y-5.13
X12.9875Y-5.95
X13.075Y-4.45
X13.1Y-2.325
X13.1Y-2.625
X13.1Y-3.325
X13.1Y-3.625
X13.175Y-4.45
X13.2625Y-5.2
X13.28Y-5.58
X13.28Y-5.88
X13.3625Y-5.2
X13.38Y-6.32
X13.38Y-6.62
X13.45Y-2.7
X13.45Y-3.7
X13.475Y-4.075
X13.475Y-4.375
X13.55Y-2.7
X13.55Y-3.7
X13.6375Y-5.95
X13.665Y-4.83
X13.665Y-5.13
X13.7312Y-6.7
X13.7375Y-5.95
X13.825Y-4.45
X13.8312Y-6.7
X13.85Y-2.325
X13.85Y-2.625
X13.85Y-3.325
X13.85Y-3.625
X13.925Y-4.45
X14.0125Y-5.2
X14.1125Y-5.2
X14.2Y-2.7
X14.2Y-3.7
X14.225Y-4.075
X14.225Y-4.375
X14.3Y-2.7
X14.3Y-3.7
X14.32Y-6.32
X14.32Y-6.62
X14.575Y-4.45
X14.6Y-2.325
X14.6Y-2.625
X14.6687Y-6.7
X14.675Y-4.45
X14.68Y-5.58
X14.68Y-5.88
X14.7687Y-6.7
X14.875Y-4.825
X14.875Y-5.125
X14.95Y-2.7
X14.975Y-3.325
X14.975Y-3.625
X15.0437Y-5.95
X15.05Y-2.7
X15.1437Y-5.95
X15.15Y-4.075
X15.15Y-4.375
X15.2312Y-5.2
X15.24Y-6.32
X15.24Y-6.62
X15.325Y-3.7
X15.3312Y-5.2
X15.35Y-2.325
X15.35Y-2.625
X15.425Y-3.7
X15.5125Y-4.45
X15.6062Y-6.7
X15.6125Y-4.45
X15.7Y-2.7
X15.7062Y-6.7
X15.8Y-2.7
X16.345Y-3.325
X16.345Y-3.625
X16.35Y-2.325
X16.35Y-2.625
X16.35Y-4.08
X16.35Y-4.38
X16.35Y-4.82
X16.35Y-5.12
X16.35Y-5.95
X16.35Y-6.25
X16.7Y-2.7
X16.7Y-3.7
X16.7Y-4.45
X16.7Y-5.2
X16.7Y-6.325
X16.8Y-2.7
X16.8Y-3.7
X16.8Y-4.45
X16.8Y-5.2
X16.8Y-6.325
T3
X6.755Y-0.865
X6.855Y-0.875
X6.955Y-0.865
X7.055Y-0.875
X7.055Y-0.875
X7.1975Y-0.865
X7.1975Y-0.865
X7.2975Y-0.875
X7.3975Y-0.865
X7.4975Y-0.875
T4
X6.155Y-1.015
X6.155Y-1.615
X6.255Y-1.015
X6.255Y-1.615
X6.355Y-1.015
X6.355Y-1.615
X6.455Y-1.015
X6.455Y-1.615
X6.555Y-1.015
X6.555Y-1.615
X6.655Y-1.015
X6.655Y-1.615
X6.755Y-1.015
X6.755Y-1.615
X6.855Y-1.015
X6.855Y-1.615
X6.955Y-1.015
X6.955Y-1.615
X7.055Y-1.015
X7.055Y-1.615
X7.155Y-1.015
X7.155Y-1.615
X7.255Y-1.015
X7.255Y-1.615
X7.355Y-1.015
X7.355Y-1.615
X7.455Y-1.015
X7.455Y-1.615
X7.555Y-1.015
X7.555Y-1.615
X7.655Y-1.015
X7.655Y-1.615
X7.755Y-1.015
X7.755Y-1.615
X7.855Y-1.015
X7.855Y-1.615
X7.955Y-1.015
X7.955Y-1.615
X8.055Y-1.015
X8.055Y-1.615
X8.155Y-1.015
X8.155Y-1.615
X8.255Y-1.015
X8.255Y-1.615
X8.355Y-1.015
X8.355Y-1.615
X8.455Y-1.015
X8.455Y-1.615
T5
X1.1Y-2.4
X1.1Y-3.4
X1.1Y-4.15
X1.1Y-4.9
X1.1Y-6.025
X1.35Y-2.3
X1.35Y-3.3
X1.35Y-4.05
X1.35Y-4.8
X1.35Y-5.925
X2.1Y-2.4
X2.1Y-3.4
X2.1938Y-6.4
X2.2875Y-4.15
X2.35Y-2.3
X2.35Y-3.3
X2.3813Y-4.9
X2.4438Y-6.3
X2.5375Y-4.05
X2.5688Y-5.65
X2.6313Y-4.8
X2.8188Y-5.55
X2.85Y-2.4
X2.85Y-3.4
X3.1Y-2.3
X3.1Y-3.3
X3.1313Y-6.4
X3.225Y-4.15
X3.3813Y-6.3
X3.4125Y-4.9
X3.475Y-4.05
X3.6Y-2.4
X3.6Y-3.4
X3.6625Y-4.8
X3.7875Y-5.65
X3.85Y-2.3
X3.85Y-3.3
X3.975Y-4.15
X4.0375Y-5.55
X4.07Y-6.405
X4.1625Y-4.9
X4.225Y-4.05
X4.32Y-6.305
X4.35Y-2.4
X4.35Y-3.4
X4.4125Y-4.8
X4.5375Y-5.65
X4.6Y-2.3
X4.6Y-3.3
X4.725Y-4.15
X4.7875Y-5.55
X4.9125Y-4.9
X4.975Y-4.05
X5.1Y-2.4
X5.1Y-3.4
X5.1Y-6.4
X5.1625Y-4.8
X5.2875Y-5.65
X5.35Y-2.3
X5.35Y-3.3
X5.35Y-6.3
X5.475Y-4.15
X5.5375Y-5.55
X5.6625Y-4.9
X5.725Y-4.05
X5.85Y-2.4
X5.85Y-3.4
X5.9125Y-4.8
X6.0375Y-5.65
X6.1Y-2.3
X6.1Y-3.3
X6.225Y-4.15
X6.2875Y-5.55
X6.4125Y-4.9
X6.4125Y-6.4
X6.475Y-4.05
X6.6Y-2.4
X6.6Y-3.4
X6.6625Y-4.8
X6.6625Y-6.3
X6.7875Y-5.65
X6.85Y-2.3
X6.85Y-3.3
X7.0375Y-5.55
X7.604Y-2.398
X7.604Y-3.398
X7.604Y-4.148
X7.604Y-6.398
X7.854Y-2.298
X7.854Y-3.298
X7.854Y-4.048
X7.854Y-6.298
X8.354Y-2.398
X8.354Y-3.398
X8.354Y-4.148
X8.354Y-5.648
X8.354Y-6.398
X8.604Y-2.298
X8.604Y-3.298
X8.604Y-4.048
X8.604Y-5.548
X8.604Y-6.298
X9.104Y-2.398
X9.104Y-3.398
X9.104Y-4.148
X9.104Y-6.398
X9.354Y-2.298
X9.354Y-3.298
X9.354Y-4.048
X9.354Y-6.298
X9.975Y-4.15
X10.1625Y-4.9
X10.225Y-4.05
X10.2562Y-6.4
X10.35Y-2.4
X10.35Y-3.4
X10.4125Y-4.8
X10.5062Y-6.3
X10.5375Y-5.65
X10.6Y-2.3
X10.6Y-3.3
X10.725Y-4.15
X10.7875Y-5.55
X10.9125Y-4.9
X10.975Y-4.05
X11.1Y-2.4
X11.1Y-3.4
X11.1625Y-4.8
X11.2875Y-5.65
X11.35Y-2.3
X11.35Y-3.3
X11.475Y-4.15
X11.475Y-6.4
X11.5375Y-5.55
X11.6625Y-4.9
X11.725Y-4.05
X11.725Y-6.3
X11.85Y-2.4
X11.85Y-3.4
X11.9125Y-4.8
X12.0375Y-5.65
X12.1Y-2.3
X12.1Y-3.3
X12.225Y-4.15
X12.2875Y-5.55
X12.4125Y-4.9
X12.475Y-4.05
X12.6Y-2.4
X12.6Y-3.4
X12.6Y-6.4
X12.6625Y-4.8
X12.7875Y-5.65
X12.85Y-2.3
X12.85Y-3.3
X12.85Y-6.3
X12.975Y-4.15
X13.0375Y-5.55
X13.1625Y-4.9
X13.225Y-4.05
X13.35Y-2.4
X13.35Y-3.4
X13.4125Y-4.8
X13.5375Y-5.65
X13.6Y-2.3
X13.6Y-3.3
X13.6312Y-6.4
X13.725Y-4.15
X13.7875Y-5.55
X13.8812Y-6.3
X13.9125Y-4.9
X13.975Y-4.05
X14.1Y-2.4
X14.1Y-3.4
X14.1625Y-4.8
X14.35Y-2.3
X14.35Y-3.3
X14.475Y-4.15
X14.5687Y-6.4
X14.725Y-4.05
X14.8187Y-6.3
X14.85Y-2.4
X14.9437Y-5.65
X15.1Y-2.3
X15.1312Y-4.9
X15.1937Y-5.55
X15.225Y-3.4
X15.3812Y-4.8
X15.4125Y-4.15
X15.475Y-3.3
X15.5062Y-6.4
X15.6Y-2.4
X15.6625Y-4.05
X15.7562Y-6.3
X15.85Y-2.3
X16.6Y-2.4
X16.6Y-3.4
X16.6Y-4.15
X16.6Y-4.9
X16.6Y-6.025
X16.85Y-2.3
X16.85Y-3.3
X16.85Y-4.05
X16.85Y-4.8
X16.85Y-5.925
T6
X1.05Y-2.5
X1.05Y-3.5
X1.05Y-4.25
X1.05Y-5.
X1.05Y-6.125
X1.45Y-2.5
X1.45Y-3.5
X1.45Y-4.25
X1.45Y-5.
X1.45Y-6.125
X2.05Y-2.5
X2.05Y-3.5
X2.1437Y-6.5
X2.2375Y-4.25
X2.3312Y-5.
X2.45Y-2.5
X2.45Y-3.5
X2.5187Y-5.75
X2.5437Y-6.5
X2.6375Y-4.25
X2.7312Y-5.
X2.8Y-2.5
X2.8Y-3.5
X2.9187Y-5.75
X3.0812Y-6.5
X3.175Y-4.25
X3.2Y-2.5
X3.2Y-3.5
X3.3625Y-5.
X3.4812Y-6.5
X3.55Y-2.5
X3.55Y-3.5
X3.575Y-4.25
X3.7375Y-5.75
X3.7625Y-5.
X3.925Y-4.25
X3.95Y-2.5
X3.95Y-3.5
X4.02Y-6.505
X4.1125Y-5.
X4.1375Y-5.75
X4.3Y-2.5
X4.3Y-3.5
X4.325Y-4.25
X4.42Y-6.505
X4.4875Y-5.75
X4.5125Y-5.
X4.675Y-4.25
X4.7Y-2.5
X4.7Y-3.5
X4.8625Y-5.
X4.8875Y-5.75
X5.05Y-2.5
X5.05Y-3.5
X5.05Y-6.5
X5.075Y-4.25
X5.2375Y-5.75
X5.2625Y-5.
X5.425Y-4.25
X5.45Y-2.5
X5.45Y-3.5
X5.45Y-6.5
X5.6125Y-5.
X5.6375Y-5.75
X5.8Y-2.5
X5.8Y-3.5
X5.825Y-4.25
X5.9875Y-5.75
X6.0125Y-5.
X6.175Y-4.25
X6.2Y-2.5
X6.2Y-3.5
X6.3625Y-5.
X6.3625Y-6.5
X6.3875Y-5.75
X6.55Y-2.5
X6.55Y-3.5
X6.575Y-4.25
X6.7375Y-5.75
X6.7625Y-5.
X6.7625Y-6.5
X6.95Y-2.5
X6.95Y-3.5
X7.1375Y-5.75
X7.554Y-2.498
X7.554Y-3.498
X7.554Y-4.248
X7.554Y-6.498
X7.954Y-2.498
X7.954Y-3.498
X7.954Y-4.248
X7.954Y-6.498
X8.304Y-2.498
X8.304Y-3.498
X8.304Y-4.248
X8.304Y-5.748
X8.304Y-6.498
X8.704Y-2.498
X8.704Y-3.498
X8.704Y-4.248
X8.704Y-5.748
X8.704Y-6.498
X9.054Y-2.498
X9.054Y-3.498
X9.054Y-4.248
X9.054Y-6.498
X9.454Y-2.498
X9.454Y-3.498
X9.454Y-4.248
X9.454Y-6.498
X9.925Y-4.25
X10.1125Y-5.
X10.2062Y-6.5
X10.3Y-2.5
X10.3Y-3.5
X10.325Y-4.25
X10.4875Y-5.75
X10.5125Y-5.
X10.6062Y-6.5
X10.675Y-4.25
X10.7Y-2.5
X10.7Y-3.5
X10.8625Y-5.
X10.8875Y-5.75
X11.05Y-2.5
X11.05Y-3.5
X11.075Y-4.25
X11.2375Y-5.75
X11.2625Y-5.
X11.425Y-4.25
X11.425Y-6.5
X11.45Y-2.5
X11.45Y-3.5
X11.6125Y-5.
X11.6375Y-5.75
X11.8Y-2.5
X11.8Y-3.5
X11.825Y-4.25
X11.825Y-6.5
X11.9875Y-5.75
X12.0125Y-5.
X12.175Y-4.25
X12.2Y-2.5
X12.2Y-3.5
X12.3625Y-5.
X12.3875Y-5.75
X12.55Y-2.5
X12.55Y-3.5
X12.55Y-6.5
X12.575Y-4.25
X12.7375Y-5.75
X12.7625Y-5.
X12.925Y-4.25
X12.95Y-2.5
X12.95Y-3.5
X12.95Y-6.5
X13.1125Y-5.
X13.1375Y-5.75
X13.3Y-2.5
X13.3Y-3.5
X13.325Y-4.25
X13.4875Y-5.75
X13.5125Y-5.
X13.5812Y-6.5
X13.675Y-4.25
X13.7Y-2.5
X13.7Y-3.5
X13.8625Y-5.
X13.8875Y-5.75
X13.9812Y-6.5
X14.05Y-2.5
X14.05Y-3.5
X14.075Y-4.25
X14.2625Y-5.
X14.425Y-4.25
X14.45Y-2.5
X14.45Y-3.5
X14.5187Y-6.5
X14.8Y-2.5
X14.825Y-4.25
X14.8937Y-5.75
X14.9187Y-6.5
X15.0812Y-5.
X15.175Y-3.5
X15.2Y-2.5
X15.2937Y-5.75
X15.3625Y-4.25
X15.4562Y-6.5
X15.4812Y-5.
X15.55Y-2.5
X15.575Y-3.5
X15.7625Y-4.25
X15.8562Y-6.5
X15.95Y-2.5
X16.55Y-2.5
X16.55Y-3.5
X16.55Y-4.25
X16.55Y-5.
X16.55Y-6.125
X16.95Y-2.5
X16.95Y-3.5
X16.95Y-4.25
X16.95Y-5.
X16.95Y-6.125
T7
X0.78Y-5.85
X1.72Y-5.85
X2.2487Y-5.475
X3.1887Y-5.475
X6.0925Y-6.225
X7.0325Y-6.225
X14.6237Y-5.475
X14.8112Y-4.725
X14.905Y-3.225
X15.5637Y-5.475
X15.7512Y-4.725
X15.845Y-3.225
X16.28Y-5.85
X17.22Y-5.85
T8
X0.755Y-6.8
X0.7575Y-0.9125
X1.7675Y-4.2325
X6.745Y-3.0025
X7.29Y-6.8
X8.5075Y-4.915
X9.8275Y-6.8
X10.4975Y-2.99
X16.085Y-4.225
X17.255Y-0.91
X17.255Y-6.8
T9
X0.78Y-6.45
X1.72Y-6.45
X2.2487Y-6.075
X3.1887Y-6.075
X6.0925Y-6.825
X7.0325Y-6.825
X14.6237Y-6.075
X14.8112Y-5.325
X14.905Y-3.825
X15.5637Y-6.075
X15.7512Y-5.325
X15.845Y-3.825
X16.28Y-6.45
X17.22Y-6.45
T10
X1.25Y-2.5
X1.25Y-3.5
X1.25Y-4.25
X1.25Y-5.
X1.25Y-6.125
X2.25Y-2.5
X2.25Y-3.5
X2.3438Y-6.5
X2.4375Y-4.25
X2.5312Y-5.
X2.7188Y-5.75
X3.Y-2.5
X3.Y-3.5
X3.2812Y-6.5
X3.375Y-4.25
X3.5625Y-5.
X3.75Y-2.5
X3.75Y-3.5
X3.9375Y-5.75
X4.125Y-4.25
X4.22Y-6.505
X4.3125Y-5.
X4.5Y-2.5
X4.5Y-3.5
X4.6875Y-5.75
X4.875Y-4.25
X5.0625Y-5.
X5.25Y-2.5
X5.25Y-3.5
X5.25Y-6.5
X5.4375Y-5.75
X5.625Y-4.25
X5.8125Y-5.
X6.Y-2.5
X6.Y-3.5
X6.1875Y-5.75
X6.375Y-4.25
X6.5625Y-5.
X6.5625Y-6.5
X6.75Y-2.5
X6.75Y-3.5
X6.9375Y-5.75
X7.754Y-2.498
X7.754Y-3.498
X7.754Y-4.248
X7.754Y-6.498
X8.504Y-2.498
X8.504Y-3.498
X8.504Y-4.248
X8.504Y-5.748
X8.504Y-6.498
X9.254Y-2.498
X9.254Y-3.498
X9.254Y-4.248
X9.254Y-6.498
X10.125Y-4.25
X10.3125Y-5.
X10.4062Y-6.5
X10.5Y-2.5
X10.5Y-3.5
X10.6875Y-5.75
X10.875Y-4.25
X11.0625Y-5.
X11.25Y-2.5
X11.25Y-3.5
X11.4375Y-5.75
X11.625Y-4.25
X11.625Y-6.5
X11.8125Y-5.
X12.Y-2.5
X12.Y-3.5
X12.1875Y-5.75
X12.375Y-4.25
X12.5625Y-5.
X12.75Y-2.5
X12.75Y-3.5
X12.75Y-6.5
X12.9375Y-5.75
X13.125Y-4.25
X13.3125Y-5.
X13.5Y-2.5
X13.5Y-3.5
X13.6875Y-5.75
X13.7812Y-6.5
X13.875Y-4.25
X14.0625Y-5.
X14.25Y-2.5
X14.25Y-3.5
X14.625Y-4.25
X14.7188Y-6.5
X15.Y-2.5
X15.0938Y-5.75
X15.2812Y-5.
X15.375Y-3.5
X15.5625Y-4.25
X15.6562Y-6.5
X15.75Y-2.5
X16.75Y-2.5
X16.75Y-3.5
X16.75Y-4.25
X16.75Y-5.
X16.75Y-6.125
T0
M30
