G04 #@! TF.FileFunction,Soldermask,Bot*
%FSLAX46Y46*%
G04 Gerber Fmt 4.6, Leading zero omitted, Abs format (unit mm)*
G04 Created by KiCad (PCBNEW 4.0.5) date 10/20/18 10:38:25*
%MOMM*%
%LPD*%
G01*
G04 APERTURE LIST*
%ADD10C,0.100000*%
%ADD11C,3.600000*%
%ADD12R,1.650000X1.900000*%
%ADD13R,1.700000X1.900000*%
%ADD14R,2.000000X2.000000*%
%ADD15O,2.000000X2.000000*%
%ADD16C,2.000000*%
%ADD17C,2.432000*%
%ADD18C,3.625800*%
%ADD19C,4.600000*%
%ADD20C,2.200000*%
%ADD21R,0.850000X1.450000*%
%ADD22R,1.295000X1.870000*%
%ADD23C,3.448000*%
%ADD24C,4.387800*%
%ADD25C,2.279600*%
G04 APERTURE END LIST*
D10*
D11*
X408559000Y-107315000D03*
X44894500Y-107505500D03*
X266636500Y-75946000D03*
X216090500Y-124841000D03*
X171323000Y-76263500D03*
X249618500Y-172720000D03*
X185166000Y-172720000D03*
X19177000Y-172720000D03*
X438277000Y-172720000D03*
X438277000Y-23114000D03*
D12*
X262382000Y-46629000D03*
X262382000Y-49129000D03*
X251587000Y-46756000D03*
X251587000Y-49256000D03*
X253873000Y-46756000D03*
X253873000Y-49256000D03*
D13*
X260477000Y-38561000D03*
X260477000Y-35861000D03*
D14*
X186690000Y-59055000D03*
D15*
X186690000Y-66675000D03*
D14*
X186791600Y-84404200D03*
D15*
X186791600Y-92024200D03*
D14*
X205841600Y-84404200D03*
D15*
X205841600Y-92024200D03*
D14*
X224790000Y-59055000D03*
D15*
X224790000Y-66675000D03*
D14*
X224891600Y-84404200D03*
D15*
X224891600Y-92024200D03*
D14*
X186791600Y-103454200D03*
D15*
X186791600Y-111074200D03*
D14*
X186791600Y-160604200D03*
D15*
X186791600Y-168224200D03*
D14*
X205841600Y-160604200D03*
D15*
X205841600Y-168224200D03*
D14*
X205740000Y-59055000D03*
D15*
X205740000Y-66675000D03*
D14*
X205841600Y-103454200D03*
D15*
X205841600Y-111074200D03*
D14*
X205841600Y-141554200D03*
D15*
X205841600Y-149174200D03*
D14*
X224891600Y-103454200D03*
D15*
X224891600Y-111074200D03*
D14*
X224891600Y-160604200D03*
D15*
X224891600Y-168224200D03*
D16*
X196977000Y-41021000D03*
X199517000Y-41021000D03*
X202057000Y-41021000D03*
X204597000Y-41021000D03*
X194437000Y-41021000D03*
X191897000Y-41021000D03*
X189357000Y-41021000D03*
X207137000Y-41021000D03*
X209677000Y-41021000D03*
X212217000Y-41021000D03*
X214757000Y-41021000D03*
X214757000Y-25781000D03*
X212217000Y-25781000D03*
X209677000Y-25781000D03*
X207137000Y-25781000D03*
X204597000Y-25781000D03*
X202057000Y-25781000D03*
X199517000Y-25781000D03*
X196977000Y-25781000D03*
X186817000Y-41021000D03*
X184277000Y-41021000D03*
X181737000Y-41021000D03*
X179197000Y-41021000D03*
X176657000Y-41021000D03*
X174117000Y-41021000D03*
X171577000Y-41021000D03*
X169037000Y-41021000D03*
X166497000Y-41021000D03*
X163957000Y-41021000D03*
X161417000Y-41021000D03*
X158877000Y-41021000D03*
D14*
X156337000Y-41021000D03*
D16*
X194437000Y-25781000D03*
X191897000Y-25781000D03*
X189357000Y-25781000D03*
X186817000Y-25781000D03*
X184277000Y-25781000D03*
X181737000Y-25781000D03*
X179197000Y-25781000D03*
X176657000Y-25781000D03*
X174117000Y-25781000D03*
X171577000Y-25781000D03*
X169037000Y-25781000D03*
X166497000Y-25781000D03*
X163957000Y-25781000D03*
X161417000Y-25781000D03*
X158877000Y-25781000D03*
X156337000Y-25781000D03*
D17*
X195681600Y-68529200D03*
X198221600Y-68529200D03*
D18*
X193141600Y-60909200D03*
X199491600Y-58369200D03*
D19*
X196951600Y-63449200D03*
D20*
X202031600Y-63449200D03*
X191871600Y-63449200D03*
D17*
X195681600Y-93929200D03*
X198221600Y-93929200D03*
D18*
X193141600Y-86309200D03*
X199491600Y-83769200D03*
D19*
X196951600Y-88849200D03*
D20*
X202031600Y-88849200D03*
X191871600Y-88849200D03*
D17*
X214731600Y-93929200D03*
X217271600Y-93929200D03*
D18*
X212191600Y-86309200D03*
X218541600Y-83769200D03*
D19*
X216001600Y-88849200D03*
D20*
X221081600Y-88849200D03*
X210921600Y-88849200D03*
D17*
X233781600Y-68529200D03*
X236321600Y-68529200D03*
D18*
X231241600Y-60909200D03*
X237591600Y-58369200D03*
D19*
X235051600Y-63449200D03*
D20*
X240131600Y-63449200D03*
X229971600Y-63449200D03*
D17*
X233781600Y-93929200D03*
X236321600Y-93929200D03*
D18*
X231241600Y-86309200D03*
X237591600Y-83769200D03*
D19*
X235051600Y-88849200D03*
D20*
X240131600Y-88849200D03*
X229971600Y-88849200D03*
D17*
X195681600Y-112979200D03*
X198221600Y-112979200D03*
D18*
X193141600Y-105359200D03*
X199491600Y-102819200D03*
D19*
X196951600Y-107899200D03*
D20*
X202031600Y-107899200D03*
X191871600Y-107899200D03*
D17*
X195681600Y-170129200D03*
X198221600Y-170129200D03*
D18*
X193141600Y-162509200D03*
X199491600Y-159969200D03*
D19*
X196951600Y-165049200D03*
D20*
X202031600Y-165049200D03*
X191871600Y-165049200D03*
D17*
X214731600Y-170129200D03*
X217271600Y-170129200D03*
D18*
X212191600Y-162509200D03*
X218541600Y-159969200D03*
D19*
X216001600Y-165049200D03*
D20*
X221081600Y-165049200D03*
X210921600Y-165049200D03*
D17*
X214731600Y-68529200D03*
X217271600Y-68529200D03*
D18*
X212191600Y-60909200D03*
X218541600Y-58369200D03*
D19*
X216001600Y-63449200D03*
D20*
X221081600Y-63449200D03*
X210921600Y-63449200D03*
D17*
X214731600Y-112979200D03*
X217271600Y-112979200D03*
D18*
X212191600Y-105359200D03*
X218541600Y-102819200D03*
D19*
X216001600Y-107899200D03*
D20*
X221081600Y-107899200D03*
X210921600Y-107899200D03*
D17*
X214731600Y-151079200D03*
X217271600Y-151079200D03*
D18*
X212191600Y-143459200D03*
X218541600Y-140919200D03*
D19*
X216001600Y-145999200D03*
D20*
X221081600Y-145999200D03*
X210921600Y-145999200D03*
D17*
X233781600Y-112979200D03*
X236321600Y-112979200D03*
D18*
X231241600Y-105359200D03*
X237591600Y-102819200D03*
D19*
X235051600Y-107899200D03*
D20*
X240131600Y-107899200D03*
X229971600Y-107899200D03*
D17*
X233781600Y-170129200D03*
X236321600Y-170129200D03*
D18*
X231241600Y-162509200D03*
X237591600Y-159969200D03*
D19*
X235051600Y-165049200D03*
D20*
X240131600Y-165049200D03*
X229971600Y-165049200D03*
D12*
X131318000Y-46375000D03*
X131318000Y-48875000D03*
X122682000Y-46248000D03*
X122682000Y-48748000D03*
X120523000Y-46248000D03*
X120523000Y-48748000D03*
D14*
X21590000Y-59055000D03*
D15*
X21590000Y-66675000D03*
D14*
X21590000Y-84455000D03*
D15*
X21590000Y-92075000D03*
D14*
X21590000Y-103505000D03*
D15*
X21590000Y-111125000D03*
D14*
X21590000Y-122555000D03*
D15*
X21590000Y-130175000D03*
D14*
X21590000Y-151130000D03*
D15*
X21590000Y-158750000D03*
D14*
X53975000Y-122555000D03*
D15*
X53975000Y-130175000D03*
D14*
X59055000Y-141605000D03*
D15*
X59055000Y-149225000D03*
D14*
X46990000Y-59055000D03*
D15*
X46990000Y-66675000D03*
D14*
X46990000Y-84455000D03*
D15*
X46990000Y-92075000D03*
D14*
X51435000Y-103505000D03*
D15*
X51435000Y-111125000D03*
D14*
X49530000Y-160655000D03*
D15*
X49530000Y-168275000D03*
D14*
X66040000Y-59055000D03*
D15*
X66040000Y-66675000D03*
D14*
X66040000Y-84455000D03*
D15*
X66040000Y-92075000D03*
D14*
X80010000Y-122555000D03*
D15*
X80010000Y-130175000D03*
D14*
X89535000Y-141605000D03*
D15*
X89535000Y-149225000D03*
D14*
X73025000Y-160655000D03*
D15*
X73025000Y-168275000D03*
D14*
X85090000Y-59055000D03*
D15*
X85090000Y-66675000D03*
D14*
X85090000Y-84455000D03*
D15*
X85090000Y-92075000D03*
D14*
X75565000Y-103505000D03*
D15*
X75565000Y-111125000D03*
D14*
X97155000Y-160655000D03*
D15*
X97155000Y-168275000D03*
D14*
X104140000Y-59055000D03*
D15*
X104140000Y-66675000D03*
D14*
X104140000Y-84455000D03*
D15*
X104140000Y-92075000D03*
D14*
X94615000Y-103505000D03*
D15*
X94615000Y-111125000D03*
D14*
X99695000Y-122555000D03*
D15*
X99695000Y-130175000D03*
D14*
X109220000Y-141605000D03*
D15*
X109220000Y-149225000D03*
D14*
X123190000Y-59055000D03*
D15*
X123190000Y-66675000D03*
D14*
X123190000Y-84455000D03*
D15*
X123190000Y-92075000D03*
D14*
X113665000Y-103505000D03*
D15*
X113665000Y-111125000D03*
D14*
X118745000Y-122555000D03*
D15*
X118745000Y-130175000D03*
D14*
X128270000Y-141605000D03*
D15*
X128270000Y-149225000D03*
D14*
X123190000Y-160655000D03*
D15*
X123190000Y-168275000D03*
D14*
X142240000Y-84455000D03*
D15*
X142240000Y-92075000D03*
D14*
X142240000Y-59055000D03*
D15*
X142240000Y-66675000D03*
D14*
X132715000Y-103505000D03*
D15*
X132715000Y-111125000D03*
D14*
X137795000Y-122555000D03*
D15*
X137795000Y-130175000D03*
D14*
X147320000Y-141605000D03*
D15*
X147320000Y-149225000D03*
D14*
X161290000Y-59055000D03*
D15*
X161290000Y-66675000D03*
D14*
X161290000Y-84455000D03*
D15*
X161290000Y-92075000D03*
D14*
X151765000Y-103505000D03*
D15*
X151765000Y-111125000D03*
D14*
X156845000Y-122555000D03*
D15*
X156845000Y-130175000D03*
D14*
X166370000Y-141605000D03*
D15*
X166370000Y-149225000D03*
D14*
X156210000Y-160655000D03*
D15*
X156210000Y-168275000D03*
D13*
X129286000Y-38053000D03*
X129286000Y-35353000D03*
D17*
X30480000Y-68580000D03*
X33020000Y-68580000D03*
D18*
X27940000Y-60960000D03*
X34290000Y-58420000D03*
D19*
X31750000Y-63500000D03*
D20*
X36830000Y-63500000D03*
X26670000Y-63500000D03*
D17*
X30480000Y-93980000D03*
X33020000Y-93980000D03*
D18*
X27940000Y-86360000D03*
X34290000Y-83820000D03*
D19*
X31750000Y-88900000D03*
D20*
X36830000Y-88900000D03*
X26670000Y-88900000D03*
D17*
X30480000Y-113030000D03*
X33020000Y-113030000D03*
D18*
X27940000Y-105410000D03*
X34290000Y-102870000D03*
D19*
X31750000Y-107950000D03*
D20*
X36830000Y-107950000D03*
X26670000Y-107950000D03*
D17*
X30480000Y-132080000D03*
X33020000Y-132080000D03*
D18*
X27940000Y-124460000D03*
X34290000Y-121920000D03*
D19*
X31750000Y-127000000D03*
D20*
X36830000Y-127000000D03*
X26670000Y-127000000D03*
D17*
X63023750Y-132080000D03*
X65563750Y-132080000D03*
D18*
X60483750Y-124460000D03*
X66833750Y-121920000D03*
D19*
X64293750Y-127000000D03*
D20*
X69373750Y-127000000D03*
X59213750Y-127000000D03*
D17*
X55880000Y-68580000D03*
X58420000Y-68580000D03*
D18*
X53340000Y-60960000D03*
X59690000Y-58420000D03*
D19*
X57150000Y-63500000D03*
D20*
X62230000Y-63500000D03*
X52070000Y-63500000D03*
D17*
X55880000Y-93980000D03*
X58420000Y-93980000D03*
D18*
X53340000Y-86360000D03*
X59690000Y-83820000D03*
D19*
X57150000Y-88900000D03*
D20*
X62230000Y-88900000D03*
X52070000Y-88900000D03*
D17*
X60642500Y-113030000D03*
X63182500Y-113030000D03*
D18*
X58102500Y-105410000D03*
X64452500Y-102870000D03*
D19*
X61912500Y-107950000D03*
D20*
X66992500Y-107950000D03*
X56832500Y-107950000D03*
D17*
X58261250Y-170180000D03*
X60801250Y-170180000D03*
D18*
X55721250Y-162560000D03*
X62071250Y-160020000D03*
D19*
X59531250Y-165100000D03*
D20*
X64611250Y-165100000D03*
X54451250Y-165100000D03*
D17*
X74930000Y-68580000D03*
X77470000Y-68580000D03*
D18*
X72390000Y-60960000D03*
X78740000Y-58420000D03*
D19*
X76200000Y-63500000D03*
D20*
X81280000Y-63500000D03*
X71120000Y-63500000D03*
D17*
X74930000Y-93980000D03*
X77470000Y-93980000D03*
D18*
X72390000Y-86360000D03*
X78740000Y-83820000D03*
D19*
X76200000Y-88900000D03*
D20*
X81280000Y-88900000D03*
X71120000Y-88900000D03*
D17*
X89217500Y-132080000D03*
X91757500Y-132080000D03*
D18*
X86677500Y-124460000D03*
X93027500Y-121920000D03*
D19*
X90487500Y-127000000D03*
D20*
X95567500Y-127000000D03*
X85407500Y-127000000D03*
D17*
X98742500Y-151130000D03*
X101282500Y-151130000D03*
D18*
X96202500Y-143510000D03*
X102552500Y-140970000D03*
D19*
X100012500Y-146050000D03*
D20*
X105092500Y-146050000D03*
X94932500Y-146050000D03*
D17*
X82073750Y-170180000D03*
X84613750Y-170180000D03*
D18*
X79533750Y-162560000D03*
X85883750Y-160020000D03*
D19*
X83343750Y-165100000D03*
D20*
X88423750Y-165100000D03*
X78263750Y-165100000D03*
D17*
X93980000Y-68580000D03*
X96520000Y-68580000D03*
D18*
X91440000Y-60960000D03*
X97790000Y-58420000D03*
D19*
X95250000Y-63500000D03*
D20*
X100330000Y-63500000D03*
X90170000Y-63500000D03*
D17*
X93980000Y-93980000D03*
X96520000Y-93980000D03*
D18*
X91440000Y-86360000D03*
X97790000Y-83820000D03*
D19*
X95250000Y-88900000D03*
D20*
X100330000Y-88900000D03*
X90170000Y-88900000D03*
D17*
X84455000Y-113030000D03*
X86995000Y-113030000D03*
D18*
X81915000Y-105410000D03*
X88265000Y-102870000D03*
D19*
X85725000Y-107950000D03*
D20*
X90805000Y-107950000D03*
X80645000Y-107950000D03*
D17*
X105918000Y-170307000D03*
X108458000Y-170307000D03*
D18*
X103378000Y-162687000D03*
X109728000Y-160147000D03*
D19*
X107188000Y-165227000D03*
D20*
X112268000Y-165227000D03*
X102108000Y-165227000D03*
D17*
X113030000Y-68580000D03*
X115570000Y-68580000D03*
D18*
X110490000Y-60960000D03*
X116840000Y-58420000D03*
D19*
X114300000Y-63500000D03*
D20*
X119380000Y-63500000D03*
X109220000Y-63500000D03*
D17*
X113030000Y-93980000D03*
X115570000Y-93980000D03*
D18*
X110490000Y-86360000D03*
X116840000Y-83820000D03*
D19*
X114300000Y-88900000D03*
D20*
X119380000Y-88900000D03*
X109220000Y-88900000D03*
D17*
X103505000Y-113030000D03*
X106045000Y-113030000D03*
D18*
X100965000Y-105410000D03*
X107315000Y-102870000D03*
D19*
X104775000Y-107950000D03*
D20*
X109855000Y-107950000D03*
X99695000Y-107950000D03*
D17*
X108267500Y-132080000D03*
X110807500Y-132080000D03*
D18*
X105727500Y-124460000D03*
X112077500Y-121920000D03*
D19*
X109537500Y-127000000D03*
D20*
X114617500Y-127000000D03*
X104457500Y-127000000D03*
D17*
X117792500Y-151130000D03*
X120332500Y-151130000D03*
D18*
X115252500Y-143510000D03*
X121602500Y-140970000D03*
D19*
X119062500Y-146050000D03*
D20*
X124142500Y-146050000D03*
X113982500Y-146050000D03*
D17*
X132080000Y-68580000D03*
X134620000Y-68580000D03*
D18*
X129540000Y-60960000D03*
X135890000Y-58420000D03*
D19*
X133350000Y-63500000D03*
D20*
X138430000Y-63500000D03*
X128270000Y-63500000D03*
D17*
X132080000Y-93980000D03*
X134620000Y-93980000D03*
D18*
X129540000Y-86360000D03*
X135890000Y-83820000D03*
D19*
X133350000Y-88900000D03*
D20*
X138430000Y-88900000D03*
X128270000Y-88900000D03*
D17*
X122555000Y-113030000D03*
X125095000Y-113030000D03*
D18*
X120015000Y-105410000D03*
X126365000Y-102870000D03*
D19*
X123825000Y-107950000D03*
D20*
X128905000Y-107950000D03*
X118745000Y-107950000D03*
D17*
X127317500Y-132080000D03*
X129857500Y-132080000D03*
D18*
X124777500Y-124460000D03*
X131127500Y-121920000D03*
D19*
X128587500Y-127000000D03*
D20*
X133667500Y-127000000D03*
X123507500Y-127000000D03*
D17*
X136842500Y-151130000D03*
X139382500Y-151130000D03*
D18*
X134302500Y-143510000D03*
X140652500Y-140970000D03*
D19*
X138112500Y-146050000D03*
D20*
X143192500Y-146050000D03*
X133032500Y-146050000D03*
D17*
X132080000Y-170180000D03*
X134620000Y-170180000D03*
D18*
X129540000Y-162560000D03*
X135890000Y-160020000D03*
D19*
X133350000Y-165100000D03*
D20*
X138430000Y-165100000D03*
X128270000Y-165100000D03*
D17*
X151130000Y-93980000D03*
X153670000Y-93980000D03*
D18*
X148590000Y-86360000D03*
X154940000Y-83820000D03*
D19*
X152400000Y-88900000D03*
D20*
X157480000Y-88900000D03*
X147320000Y-88900000D03*
D17*
X151130000Y-68580000D03*
X153670000Y-68580000D03*
D18*
X148590000Y-60960000D03*
X154940000Y-58420000D03*
D19*
X152400000Y-63500000D03*
D20*
X157480000Y-63500000D03*
X147320000Y-63500000D03*
D17*
X141605000Y-113030000D03*
X144145000Y-113030000D03*
D18*
X139065000Y-105410000D03*
X145415000Y-102870000D03*
D19*
X142875000Y-107950000D03*
D20*
X147955000Y-107950000D03*
X137795000Y-107950000D03*
D17*
X146367500Y-132080000D03*
X148907500Y-132080000D03*
D18*
X143827500Y-124460000D03*
X150177500Y-121920000D03*
D19*
X147637500Y-127000000D03*
D20*
X152717500Y-127000000D03*
X142557500Y-127000000D03*
D17*
X155892500Y-151130000D03*
X158432500Y-151130000D03*
D18*
X153352500Y-143510000D03*
X159702500Y-140970000D03*
D19*
X157162500Y-146050000D03*
D20*
X162242500Y-146050000D03*
X152082500Y-146050000D03*
D17*
X170180000Y-68580000D03*
X172720000Y-68580000D03*
D18*
X167640000Y-60960000D03*
X173990000Y-58420000D03*
D19*
X171450000Y-63500000D03*
D20*
X176530000Y-63500000D03*
X166370000Y-63500000D03*
D17*
X170180000Y-93980000D03*
X172720000Y-93980000D03*
D18*
X167640000Y-86360000D03*
X173990000Y-83820000D03*
D19*
X171450000Y-88900000D03*
D20*
X176530000Y-88900000D03*
X166370000Y-88900000D03*
D17*
X160655000Y-113030000D03*
X163195000Y-113030000D03*
D18*
X158115000Y-105410000D03*
X164465000Y-102870000D03*
D19*
X161925000Y-107950000D03*
D20*
X167005000Y-107950000D03*
X156845000Y-107950000D03*
D17*
X165417500Y-132080000D03*
X167957500Y-132080000D03*
D18*
X162877500Y-124460000D03*
X169227500Y-121920000D03*
D19*
X166687500Y-127000000D03*
D20*
X171767500Y-127000000D03*
X161607500Y-127000000D03*
D17*
X174942500Y-151130000D03*
X177482500Y-151130000D03*
D18*
X172402500Y-143510000D03*
X178752500Y-140970000D03*
D19*
X176212500Y-146050000D03*
D20*
X181292500Y-146050000D03*
X171132500Y-146050000D03*
D21*
X255916000Y-40786000D03*
X256566000Y-40786000D03*
X257216000Y-40786000D03*
X257866000Y-40786000D03*
X258516000Y-40786000D03*
X259166000Y-40786000D03*
X259816000Y-40786000D03*
X260466000Y-40786000D03*
X260466000Y-46336000D03*
X259816000Y-46336000D03*
X259166000Y-46336000D03*
X258516000Y-46336000D03*
X257866000Y-46336000D03*
X257216000Y-46336000D03*
X256566000Y-46336000D03*
X255916000Y-46336000D03*
D22*
X259533500Y-44296000D03*
X258638500Y-44296000D03*
X257743500Y-44296000D03*
X256848500Y-44296000D03*
X259533500Y-42826000D03*
X258638500Y-42826000D03*
X257743500Y-42826000D03*
X256848500Y-42826000D03*
D21*
X124725000Y-40405000D03*
X125375000Y-40405000D03*
X126025000Y-40405000D03*
X126675000Y-40405000D03*
X127325000Y-40405000D03*
X127975000Y-40405000D03*
X128625000Y-40405000D03*
X129275000Y-40405000D03*
X129275000Y-45955000D03*
X128625000Y-45955000D03*
X127975000Y-45955000D03*
X127325000Y-45955000D03*
X126675000Y-45955000D03*
X126025000Y-45955000D03*
X125375000Y-45955000D03*
X124725000Y-45955000D03*
D22*
X128342500Y-43915000D03*
X127447500Y-43915000D03*
X126552500Y-43915000D03*
X125657500Y-43915000D03*
X128342500Y-42445000D03*
X127447500Y-42445000D03*
X126552500Y-42445000D03*
X125657500Y-42445000D03*
D12*
X353822000Y-45740000D03*
X353822000Y-48240000D03*
X345694000Y-45867000D03*
X345694000Y-48367000D03*
X343535000Y-45867000D03*
X343535000Y-48367000D03*
D14*
X256540000Y-59055000D03*
D15*
X256540000Y-66675000D03*
D14*
X256540000Y-84455000D03*
D15*
X256540000Y-92075000D03*
D14*
X247015000Y-103505000D03*
D15*
X247015000Y-111125000D03*
D14*
X251460000Y-122428000D03*
D15*
X251460000Y-130048000D03*
D14*
X261112000Y-141224000D03*
D15*
X261112000Y-148844000D03*
D14*
X254000000Y-160528000D03*
D15*
X254000000Y-168148000D03*
D14*
X275590000Y-59055000D03*
D15*
X275590000Y-66675000D03*
D14*
X275590000Y-84455000D03*
D15*
X275590000Y-92075000D03*
D14*
X266065000Y-103505000D03*
D15*
X266065000Y-111125000D03*
D14*
X270764000Y-122428000D03*
D15*
X270764000Y-130048000D03*
D14*
X280416000Y-141732000D03*
D15*
X280416000Y-149352000D03*
D14*
X294640000Y-59055000D03*
D15*
X294640000Y-66675000D03*
D14*
X294640000Y-84455000D03*
D15*
X294640000Y-92075000D03*
D14*
X285115000Y-103505000D03*
D15*
X285115000Y-111125000D03*
D14*
X290068000Y-122428000D03*
D15*
X290068000Y-130048000D03*
D14*
X299212000Y-141732000D03*
D15*
X299212000Y-149352000D03*
D14*
X284988000Y-160528000D03*
D15*
X284988000Y-168148000D03*
D14*
X313436000Y-160528000D03*
D15*
X313436000Y-168148000D03*
D14*
X313690000Y-59055000D03*
D15*
X313690000Y-66675000D03*
D14*
X313690000Y-84455000D03*
D15*
X313690000Y-92075000D03*
D14*
X304165000Y-103505000D03*
D15*
X304165000Y-111125000D03*
D14*
X308864000Y-122428000D03*
D15*
X308864000Y-130048000D03*
D14*
X318516000Y-141732000D03*
D15*
X318516000Y-149352000D03*
D14*
X332740000Y-59055000D03*
D15*
X332740000Y-66675000D03*
D14*
X332740000Y-84455000D03*
D15*
X332740000Y-92075000D03*
D14*
X323215000Y-103505000D03*
D15*
X323215000Y-111125000D03*
D14*
X328168000Y-122682000D03*
D15*
X328168000Y-130302000D03*
D14*
X337312000Y-141732000D03*
D15*
X337312000Y-149352000D03*
D14*
X339852000Y-160528000D03*
D15*
X339852000Y-168148000D03*
D14*
X351790000Y-59055000D03*
D15*
X351790000Y-66675000D03*
D14*
X351790000Y-84455000D03*
D15*
X351790000Y-92075000D03*
D14*
X342265000Y-103505000D03*
D15*
X342265000Y-111125000D03*
D14*
X347091000Y-122682000D03*
D15*
X347091000Y-130302000D03*
D14*
X372872000Y-141732000D03*
D15*
X372872000Y-149352000D03*
D14*
X370840000Y-59055000D03*
D15*
X370840000Y-66675000D03*
D14*
X361315000Y-103505000D03*
D15*
X361315000Y-111125000D03*
D14*
X363728000Y-160528000D03*
D15*
X363728000Y-168148000D03*
D14*
X389890000Y-59055000D03*
D15*
X389890000Y-66675000D03*
D14*
X380365000Y-84455000D03*
D15*
X380365000Y-92075000D03*
D14*
X384810000Y-103505000D03*
D15*
X384810000Y-111125000D03*
D14*
X377825000Y-122555000D03*
D15*
X377825000Y-130175000D03*
D14*
X387096000Y-160528000D03*
D15*
X387096000Y-168148000D03*
D14*
X415290000Y-122428000D03*
D15*
X415290000Y-130048000D03*
D14*
X415290000Y-151130000D03*
D15*
X415290000Y-158750000D03*
D14*
X415290000Y-59055000D03*
D15*
X415290000Y-66675000D03*
D14*
X415163000Y-84455000D03*
D15*
X415163000Y-92075000D03*
D14*
X415290000Y-103632000D03*
D15*
X415290000Y-111252000D03*
D13*
X352171000Y-37672000D03*
X352171000Y-34972000D03*
D17*
X265430000Y-68580000D03*
X267970000Y-68580000D03*
D18*
X262890000Y-60960000D03*
X269240000Y-58420000D03*
D19*
X266700000Y-63500000D03*
D20*
X271780000Y-63500000D03*
X261620000Y-63500000D03*
D17*
X265430000Y-93980000D03*
X267970000Y-93980000D03*
D18*
X262890000Y-86360000D03*
X269240000Y-83820000D03*
D19*
X266700000Y-88900000D03*
D20*
X271780000Y-88900000D03*
X261620000Y-88900000D03*
D17*
X255905000Y-113030000D03*
X258445000Y-113030000D03*
D18*
X253365000Y-105410000D03*
X259715000Y-102870000D03*
D19*
X257175000Y-107950000D03*
D20*
X262255000Y-107950000D03*
X252095000Y-107950000D03*
D17*
X260667500Y-132080000D03*
X263207500Y-132080000D03*
D18*
X258127500Y-124460000D03*
X264477500Y-121920000D03*
D19*
X261937500Y-127000000D03*
D20*
X267017500Y-127000000D03*
X256857500Y-127000000D03*
D17*
X270192500Y-151130000D03*
X272732500Y-151130000D03*
D18*
X267652500Y-143510000D03*
X274002500Y-140970000D03*
D19*
X271462500Y-146050000D03*
D20*
X276542500Y-146050000D03*
X266382500Y-146050000D03*
D17*
X263048750Y-170180000D03*
X265588750Y-170180000D03*
D18*
X260508750Y-162560000D03*
X266858750Y-160020000D03*
D19*
X264318750Y-165100000D03*
D20*
X269398750Y-165100000D03*
X259238750Y-165100000D03*
D17*
X284480000Y-68580000D03*
X287020000Y-68580000D03*
D18*
X281940000Y-60960000D03*
X288290000Y-58420000D03*
D19*
X285750000Y-63500000D03*
D20*
X290830000Y-63500000D03*
X280670000Y-63500000D03*
D17*
X284480000Y-93980000D03*
X287020000Y-93980000D03*
D18*
X281940000Y-86360000D03*
X288290000Y-83820000D03*
D19*
X285750000Y-88900000D03*
D20*
X290830000Y-88900000D03*
X280670000Y-88900000D03*
D17*
X274955000Y-113030000D03*
X277495000Y-113030000D03*
D18*
X272415000Y-105410000D03*
X278765000Y-102870000D03*
D19*
X276225000Y-107950000D03*
D20*
X281305000Y-107950000D03*
X271145000Y-107950000D03*
D17*
X279717500Y-132080000D03*
X282257500Y-132080000D03*
D18*
X277177500Y-124460000D03*
X283527500Y-121920000D03*
D19*
X280987500Y-127000000D03*
D20*
X286067500Y-127000000D03*
X275907500Y-127000000D03*
D17*
X289242500Y-151130000D03*
X291782500Y-151130000D03*
D18*
X286702500Y-143510000D03*
X293052500Y-140970000D03*
D19*
X290512500Y-146050000D03*
D20*
X295592500Y-146050000D03*
X285432500Y-146050000D03*
D17*
X303530000Y-68580000D03*
X306070000Y-68580000D03*
D18*
X300990000Y-60960000D03*
X307340000Y-58420000D03*
D19*
X304800000Y-63500000D03*
D20*
X309880000Y-63500000D03*
X299720000Y-63500000D03*
D17*
X303530000Y-93980000D03*
X306070000Y-93980000D03*
D18*
X300990000Y-86360000D03*
X307340000Y-83820000D03*
D19*
X304800000Y-88900000D03*
D20*
X309880000Y-88900000D03*
X299720000Y-88900000D03*
D17*
X294005000Y-113030000D03*
X296545000Y-113030000D03*
D18*
X291465000Y-105410000D03*
X297815000Y-102870000D03*
D19*
X295275000Y-107950000D03*
D20*
X300355000Y-107950000D03*
X290195000Y-107950000D03*
D17*
X298767500Y-132080000D03*
X301307500Y-132080000D03*
D18*
X296227500Y-124460000D03*
X302577500Y-121920000D03*
D19*
X300037500Y-127000000D03*
D20*
X305117500Y-127000000D03*
X294957500Y-127000000D03*
D17*
X308292500Y-151130000D03*
X310832500Y-151130000D03*
D18*
X305752500Y-143510000D03*
X312102500Y-140970000D03*
D19*
X309562500Y-146050000D03*
D20*
X314642500Y-146050000D03*
X304482500Y-146050000D03*
D17*
X294005000Y-170180000D03*
X296545000Y-170180000D03*
D18*
X291465000Y-162560000D03*
X297815000Y-160020000D03*
D19*
X295275000Y-165100000D03*
D20*
X300355000Y-165100000D03*
X290195000Y-165100000D03*
D17*
X322580000Y-170180000D03*
X325120000Y-170180000D03*
D18*
X320040000Y-162560000D03*
X326390000Y-160020000D03*
D19*
X323850000Y-165100000D03*
D20*
X328930000Y-165100000D03*
X318770000Y-165100000D03*
D17*
X322580000Y-68580000D03*
X325120000Y-68580000D03*
D18*
X320040000Y-60960000D03*
X326390000Y-58420000D03*
D19*
X323850000Y-63500000D03*
D20*
X328930000Y-63500000D03*
X318770000Y-63500000D03*
D17*
X322580000Y-93980000D03*
X325120000Y-93980000D03*
D18*
X320040000Y-86360000D03*
X326390000Y-83820000D03*
D19*
X323850000Y-88900000D03*
D20*
X328930000Y-88900000D03*
X318770000Y-88900000D03*
D17*
X313055000Y-113030000D03*
X315595000Y-113030000D03*
D18*
X310515000Y-105410000D03*
X316865000Y-102870000D03*
D19*
X314325000Y-107950000D03*
D20*
X319405000Y-107950000D03*
X309245000Y-107950000D03*
D17*
X317817500Y-132080000D03*
X320357500Y-132080000D03*
D18*
X315277500Y-124460000D03*
X321627500Y-121920000D03*
D19*
X319087500Y-127000000D03*
D20*
X324167500Y-127000000D03*
X314007500Y-127000000D03*
D17*
X327342500Y-151130000D03*
X329882500Y-151130000D03*
D18*
X324802500Y-143510000D03*
X331152500Y-140970000D03*
D19*
X328612500Y-146050000D03*
D20*
X333692500Y-146050000D03*
X323532500Y-146050000D03*
D17*
X341630000Y-68580000D03*
X344170000Y-68580000D03*
D18*
X339090000Y-60960000D03*
X345440000Y-58420000D03*
D19*
X342900000Y-63500000D03*
D20*
X347980000Y-63500000D03*
X337820000Y-63500000D03*
D17*
X341630000Y-93980000D03*
X344170000Y-93980000D03*
D18*
X339090000Y-86360000D03*
X345440000Y-83820000D03*
D19*
X342900000Y-88900000D03*
D20*
X347980000Y-88900000D03*
X337820000Y-88900000D03*
D17*
X332105000Y-113030000D03*
X334645000Y-113030000D03*
D18*
X329565000Y-105410000D03*
X335915000Y-102870000D03*
D19*
X333375000Y-107950000D03*
D20*
X338455000Y-107950000D03*
X328295000Y-107950000D03*
D17*
X336867500Y-132080000D03*
X339407500Y-132080000D03*
D18*
X334327500Y-124460000D03*
X340677500Y-121920000D03*
D19*
X338137500Y-127000000D03*
D20*
X343217500Y-127000000D03*
X333057500Y-127000000D03*
D17*
X346392500Y-151130000D03*
X348932500Y-151130000D03*
D18*
X343852500Y-143510000D03*
X350202500Y-140970000D03*
D19*
X347662500Y-146050000D03*
D20*
X352742500Y-146050000D03*
X342582500Y-146050000D03*
D17*
X348773750Y-170180000D03*
X351313750Y-170180000D03*
D18*
X346233750Y-162560000D03*
X352583750Y-160020000D03*
D19*
X350043750Y-165100000D03*
D20*
X355123750Y-165100000D03*
X344963750Y-165100000D03*
D17*
X360680000Y-68580000D03*
X363220000Y-68580000D03*
D18*
X358140000Y-60960000D03*
X364490000Y-58420000D03*
D19*
X361950000Y-63500000D03*
D20*
X367030000Y-63500000D03*
X356870000Y-63500000D03*
D17*
X360680000Y-93980000D03*
X363220000Y-93980000D03*
D18*
X358140000Y-86360000D03*
X364490000Y-83820000D03*
D19*
X361950000Y-88900000D03*
D20*
X367030000Y-88900000D03*
X356870000Y-88900000D03*
D17*
X351155000Y-113030000D03*
X353695000Y-113030000D03*
D18*
X348615000Y-105410000D03*
X354965000Y-102870000D03*
D19*
X352425000Y-107950000D03*
D20*
X357505000Y-107950000D03*
X347345000Y-107950000D03*
D17*
X355917500Y-132080000D03*
X358457500Y-132080000D03*
D18*
X353377500Y-124460000D03*
X359727500Y-121920000D03*
D19*
X357187500Y-127000000D03*
D20*
X362267500Y-127000000D03*
X352107500Y-127000000D03*
D17*
X379730000Y-68580000D03*
X382270000Y-68580000D03*
D18*
X377190000Y-60960000D03*
X383540000Y-58420000D03*
D19*
X381000000Y-63500000D03*
D20*
X386080000Y-63500000D03*
X375920000Y-63500000D03*
D17*
X370205000Y-113030000D03*
X372745000Y-113030000D03*
D18*
X367665000Y-105410000D03*
X374015000Y-102870000D03*
D19*
X371475000Y-107950000D03*
D20*
X376555000Y-107950000D03*
X366395000Y-107950000D03*
D17*
X372586250Y-170180000D03*
X375126250Y-170180000D03*
D18*
X370046250Y-162560000D03*
X376396250Y-160020000D03*
D19*
X373856250Y-165100000D03*
D20*
X378936250Y-165100000D03*
X368776250Y-165100000D03*
D17*
X398780000Y-68580000D03*
X401320000Y-68580000D03*
D18*
X396240000Y-60960000D03*
X402590000Y-58420000D03*
D19*
X400050000Y-63500000D03*
D20*
X405130000Y-63500000D03*
X394970000Y-63500000D03*
D17*
X394017500Y-113030000D03*
X396557500Y-113030000D03*
D18*
X391477500Y-105410000D03*
X397827500Y-102870000D03*
D19*
X395287500Y-107950000D03*
D20*
X400367500Y-107950000D03*
X390207500Y-107950000D03*
D17*
X396398750Y-170180000D03*
X398938750Y-170180000D03*
D18*
X393858750Y-162560000D03*
X400208750Y-160020000D03*
D19*
X397668750Y-165100000D03*
D20*
X402748750Y-165100000D03*
X392588750Y-165100000D03*
D17*
X424180000Y-132080000D03*
X426720000Y-132080000D03*
D18*
X421640000Y-124460000D03*
X427990000Y-121920000D03*
D19*
X425450000Y-127000000D03*
D20*
X430530000Y-127000000D03*
X420370000Y-127000000D03*
D17*
X424180000Y-68580000D03*
X426720000Y-68580000D03*
D18*
X421640000Y-60960000D03*
X427990000Y-58420000D03*
D19*
X425450000Y-63500000D03*
D20*
X430530000Y-63500000D03*
X420370000Y-63500000D03*
D17*
X424180000Y-93980000D03*
X426720000Y-93980000D03*
D18*
X421640000Y-86360000D03*
X427990000Y-83820000D03*
D19*
X425450000Y-88900000D03*
D20*
X430530000Y-88900000D03*
X420370000Y-88900000D03*
D17*
X424180000Y-113030000D03*
X426720000Y-113030000D03*
D18*
X421640000Y-105410000D03*
X427990000Y-102870000D03*
D19*
X425450000Y-107950000D03*
D20*
X430530000Y-107950000D03*
X420370000Y-107950000D03*
D21*
X347483000Y-39897000D03*
X348133000Y-39897000D03*
X348783000Y-39897000D03*
X349433000Y-39897000D03*
X350083000Y-39897000D03*
X350733000Y-39897000D03*
X351383000Y-39897000D03*
X352033000Y-39897000D03*
X352033000Y-45447000D03*
X351383000Y-45447000D03*
X350733000Y-45447000D03*
X350083000Y-45447000D03*
X349433000Y-45447000D03*
X348783000Y-45447000D03*
X348133000Y-45447000D03*
X347483000Y-45447000D03*
D22*
X351100500Y-43407000D03*
X350205500Y-43407000D03*
X349310500Y-43407000D03*
X348415500Y-43407000D03*
X351100500Y-41937000D03*
X350205500Y-41937000D03*
X349310500Y-41937000D03*
X348415500Y-41937000D03*
D17*
X30480000Y-160655000D03*
X33020000Y-160655000D03*
D18*
X27940000Y-153035000D03*
X34290000Y-150495000D03*
D19*
X31750000Y-155575000D03*
D20*
X36830000Y-155575000D03*
X26670000Y-155575000D03*
D23*
X19812000Y-148590000D03*
D24*
X19812000Y-163830000D03*
X43688000Y-163830000D03*
D23*
X43688000Y-148590000D03*
D17*
X67786250Y-151130000D03*
X70326250Y-151130000D03*
D18*
X65246250Y-143510000D03*
X71596250Y-140970000D03*
D19*
X69056250Y-146050000D03*
D20*
X74136250Y-146050000D03*
X63976250Y-146050000D03*
D23*
X57118250Y-139065000D03*
D24*
X57118250Y-154305000D03*
X80994250Y-154305000D03*
D23*
X80994250Y-139065000D03*
D17*
X165417500Y-170180000D03*
X167957500Y-170180000D03*
D18*
X162877500Y-162560000D03*
X169227500Y-160020000D03*
D19*
X166687500Y-165100000D03*
D20*
X171767500Y-165100000D03*
X161607500Y-165100000D03*
D23*
X154749500Y-158115000D03*
D24*
X154749500Y-173355000D03*
X178625500Y-173355000D03*
D23*
X178625500Y-158115000D03*
D17*
X382111250Y-151130000D03*
X384651250Y-151130000D03*
D18*
X379571250Y-143510000D03*
X385921250Y-140970000D03*
D19*
X383381250Y-146050000D03*
D20*
X388461250Y-146050000D03*
X378301250Y-146050000D03*
D23*
X371443250Y-139065000D03*
D24*
X371443250Y-154305000D03*
X395319250Y-154305000D03*
D23*
X395319250Y-139065000D03*
D17*
X389255000Y-93980000D03*
X391795000Y-93980000D03*
D18*
X386715000Y-86360000D03*
X393065000Y-83820000D03*
D19*
X390525000Y-88900000D03*
D20*
X395605000Y-88900000D03*
X385445000Y-88900000D03*
D23*
X378587000Y-81915000D03*
D24*
X378587000Y-97155000D03*
X402463000Y-97155000D03*
D23*
X402463000Y-81915000D03*
D17*
X386873750Y-132080000D03*
X389413750Y-132080000D03*
D18*
X384333750Y-124460000D03*
X390683750Y-121920000D03*
D19*
X388143750Y-127000000D03*
D20*
X393223750Y-127000000D03*
X383063750Y-127000000D03*
D23*
X376205750Y-120015000D03*
D24*
X376205750Y-135255000D03*
X400081750Y-135255000D03*
D23*
X400081750Y-120015000D03*
D17*
X424180000Y-160655000D03*
X426720000Y-160655000D03*
D18*
X421640000Y-153035000D03*
X427990000Y-150495000D03*
D19*
X425450000Y-155575000D03*
D20*
X430530000Y-155575000D03*
X420370000Y-155575000D03*
D23*
X413512000Y-148590000D03*
D24*
X413512000Y-163830000D03*
X437388000Y-163830000D03*
D23*
X437388000Y-148590000D03*
D25*
X179197000Y-22225000D03*
X176657000Y-21971000D03*
X174117000Y-22225000D03*
X171577000Y-21971000D03*
X182816500Y-21971000D03*
X185356500Y-22225000D03*
X187896500Y-21971000D03*
X190436500Y-22225000D03*
D11*
X19240500Y-23177500D03*
M02*
